<svg width="564" height="494" viewBox="0 0 564 494" fill="none" xmlns="http://www.w3.org/2000/svg">
<g clip-path="url(#clip0_31_409)">
<path d="M27.2143 168.34L0.0196084 153.011C-0.347218 136.61 3.29184 120.368 10.6208 105.694C16.8907 134.174 49.8868 147.724 65.1108 172.59C69.7996 180.382 72.6763 189.13 73.5276 198.186C74.379 207.242 73.1831 216.374 70.0287 224.904L71.8173 246.986C57.7621 242.773 44.7867 235.56 33.785 225.845C22.7833 216.13 14.0168 204.144 8.08955 190.712C4.83899 183.143 2.5537 175.195 1.28761 167.055C13.9669 168.406 27.2143 168.34 27.2143 168.34Z" fill="#3D5768"/>
<path d="M516.084 447.219L516.918 428.454C525.611 423.804 535.306 421.348 545.163 421.299C531.597 432.398 533.293 453.795 524.095 468.722C521.191 473.356 517.282 477.276 512.658 480.192C508.034 483.108 502.814 484.945 497.384 485.568L486.032 492.524C484.474 483.833 484.818 474.907 487.039 466.362C489.26 457.816 493.305 449.855 498.897 443.025C502.072 439.224 505.712 435.839 509.732 432.949C512.451 440.124 516.084 447.219 516.084 447.219Z" fill="#3D5768"/>
<path d="M486.833 482.867L476.553 482.866L471.663 443.186L486.835 443.187L486.833 482.867Z" fill="#FFB6B6"/>
<path d="M489.454 492.839L456.309 492.838V492.419C456.309 488.994 457.668 485.711 460.088 483.289C462.507 480.868 465.788 479.508 469.21 479.507L475.265 474.911L486.561 479.508L489.455 479.508L489.454 492.839Z" fill="#164B98"/>
<path d="M439.076 482.867L428.796 482.866L423.906 443.186L439.078 443.187L439.076 482.867Z" fill="#FFB6B6"/>
<path d="M441.698 492.839L408.552 492.838V492.419C408.552 488.994 409.912 485.711 412.331 483.289C414.751 480.868 418.032 479.508 421.453 479.507L427.509 474.911L438.805 479.508L441.698 479.508L441.698 492.839Z" fill="#164B98"/>
<path d="M434.626 265.929L501.489 267.602C514.188 274.505 514.38 289.445 510.22 307.183C510.22 307.183 511.624 317.726 508.815 320.537C506.006 323.348 504.601 323.348 506.006 328.268C507.41 333.188 499.989 341.224 500.891 342.126C501.792 343.028 503.899 347.949 503.899 347.949L496.876 388.011C496.876 388.011 491.96 457.594 490.555 459C489.15 460.406 487.746 459 489.15 462.514C490.555 466.029 491.96 464.623 490.555 466.029C489.311 467.371 488.139 468.779 487.044 470.246H470.064C470.064 470.246 468.784 463.217 468.784 462.514C468.784 461.812 467.379 457.594 467.379 456.892C467.379 456.189 468.62 454.946 468.62 454.946C469.049 453.517 469.339 452.05 469.486 450.566C469.486 449.16 473.7 395.04 473.7 395.04L465.272 324.754L444.905 393.634C444.905 393.634 444.905 454.08 443.501 455.486C442.096 456.892 442.096 456.189 442.798 459C443.501 461.812 446.31 461.109 444.203 463.217C442.096 465.326 441.394 461.812 442.096 465.326L442.798 468.84L421.729 469.142C421.729 469.142 418.92 463.217 420.325 461.109C421.729 459 421.645 459.576 419.931 456.125C418.218 452.674 417.515 451.972 418.218 451.269C418.92 450.566 418.92 446.827 418.92 446.827L422.431 379.577C422.431 379.577 423.134 308.588 423.134 306.48C423.187 305.395 422.987 304.312 422.55 303.318V300.456L425.241 290.314L434.626 265.929Z" fill="#164B98"/>
<path d="M474.792 126.79C486.265 126.79 495.566 117.481 495.566 105.999C495.566 94.5164 486.265 85.208 474.792 85.208C463.318 85.208 454.017 94.5164 454.017 105.999C454.017 117.481 463.318 126.79 474.792 126.79Z" fill="#FFB6B6"/>
<path d="M464.404 140.531C459.929 143.194 457.252 148.087 455.715 153.065C452.869 162.283 451.157 171.813 450.614 181.445L448.991 210.281L428.887 271.682C446.311 286.437 511.804 275.036 511.804 275.036C511.804 275.036 513.814 274.365 511.804 272.353C509.794 270.341 507.836 272.124 509.847 270.112C511.857 268.1 510.471 270.341 509.801 268.329C509.131 266.317 509.801 267.658 510.471 266.988C511.141 266.317 505.283 260.281 505.283 260.281L510.645 225.036L517.346 153.945C509.304 143.884 493.131 137.954 493.131 137.954L488.952 130.426L468.058 132.099L464.404 140.531Z" fill="#64748B"/>
<path d="M461.555 93.7972C462.359 93.8035 463.159 93.9085 463.937 94.11C465.471 94.4791 467.029 94.7406 468.6 94.8926C473.409 95.3454 477.928 97.398 481.435 100.723C484.942 104.047 487.235 108.452 487.947 113.234C489.154 112.18 491.901 110.243 494.152 112.044C494.186 112.072 494.206 112.087 494.286 112.049C495.781 111.34 498.435 102.602 498.516 94.9085C498.558 90.8251 497.916 85.6109 494.616 83.9596L494.442 83.8726L494.396 83.6835C494.176 82.765 491.713 81.1971 487.432 79.9767C479.652 77.759 468.055 73.4389 461.524 79.7967C461.03 81.9401 459.422 86.5269 457.798 87.0469C456 87.6223 454.446 88.119 454.202 90.3269C453.997 93.4689 454.012 96.6214 454.246 99.7613C454.855 97.8399 456.052 96.1582 457.666 94.953C458.814 94.1795 460.171 93.7762 461.555 93.7972Z" fill="#164B98"/>
<path d="M422.888 208.676L456.823 186.926L439.731 164.187L422.853 184.964L370.267 188.192C368.884 186.824 367.133 185.888 365.228 185.498C363.322 185.109 361.344 185.282 359.536 185.998C357.727 186.714 356.166 187.941 355.042 189.529C353.918 191.118 353.281 192.999 353.207 194.944C353.133 196.889 353.626 198.814 354.626 200.483C355.627 202.152 357.091 203.494 358.84 204.345C360.589 205.196 362.547 205.52 364.477 205.276C366.406 205.032 368.223 204.232 369.706 202.972L422.888 208.676Z" fill="#FFB6B6"/>
<path d="M488.32 156.567C490.289 168.496 453.095 191.275 453.095 191.275C453.095 188.475 430.895 209.613 429.893 207.291C427.045 200.691 425.043 185.059 421.064 182.557C418.788 181.126 434.77 167.685 434.77 167.685C434.77 167.685 443.136 159.25 454.114 148.611C457.162 145.546 460.935 143.302 465.083 142.089C469.23 140.875 473.617 140.732 477.835 141.672C477.835 141.672 486.35 144.638 488.32 156.567Z" fill="#64748B"/>
<path d="M558.266 214.385L535.819 180.891L513.465 198.475L534.578 214.922L538.916 267.469C537.579 268.882 536.681 270.654 536.332 272.569C535.983 274.484 536.199 276.459 536.952 278.253C537.705 280.047 538.964 281.584 540.575 282.674C542.186 283.765 544.079 284.363 546.023 284.396C547.968 284.429 549.88 283.894 551.526 282.858C553.173 281.822 554.482 280.329 555.295 278.561C556.108 276.793 556.39 274.826 556.106 272.901C555.821 270.976 554.983 269.175 553.694 267.718L558.266 214.385Z" fill="#FFB6B6"/>
<path d="M504.824 150.02C516.699 147.797 540.243 184.529 540.243 184.529C537.446 184.589 559.032 206.353 556.733 207.405C550.2 210.394 534.627 212.729 532.212 216.763C530.83 219.071 517.064 203.364 517.064 203.364C517.064 203.364 508.461 195.172 497.6 184.413C494.473 181.428 492.152 177.7 490.852 173.576C489.552 169.452 489.316 165.066 490.166 160.826C490.166 160.826 492.948 152.243 504.824 150.02Z" fill="#64748B"/>
<path d="M564 493.005C564 493.135 563.975 493.265 563.925 493.386C563.875 493.507 563.802 493.617 563.709 493.709C563.617 493.802 563.507 493.875 563.386 493.925C563.265 493.975 563.136 494 563.005 494H328.744C328.481 494 328.228 493.895 328.041 493.708C327.855 493.522 327.75 493.269 327.75 493.005C327.75 492.741 327.855 492.487 328.041 492.301C328.228 492.114 328.481 492.009 328.744 492.009H563.005C563.136 492.009 563.265 492.034 563.386 492.084C563.507 492.134 563.617 492.207 563.709 492.3C563.802 492.392 563.875 492.502 563.925 492.623C563.975 492.744 564 492.874 564 493.005Z" fill="#CCCCCC"/>
<path d="M346.984 191.371H62.6767C58.2349 191.376 53.9764 193.144 50.8355 196.287C47.6946 199.431 45.9279 203.692 45.9229 208.138V385.286C45.9279 389.731 47.6946 393.993 50.8355 397.136C53.9764 400.28 58.2349 402.048 62.6767 402.053H346.984C351.426 402.048 355.684 400.28 358.825 397.136C361.966 393.993 363.733 389.731 363.738 385.286V208.138C363.733 203.692 361.966 199.431 358.826 196.287C355.685 193.144 351.426 191.376 346.984 191.371Z" fill="#0369A1"/>
<path d="M346.984 191.371H62.6767C58.2349 191.376 53.9764 193.144 50.8355 196.287C47.6946 199.431 45.9279 203.692 45.9229 208.138V385.286C45.9279 389.731 47.6946 393.993 50.8355 397.136C53.9764 400.28 58.2349 402.048 62.6767 402.053H346.984C351.426 402.048 355.684 400.28 358.825 397.136C361.966 393.993 363.733 389.731 363.738 385.286V208.138C363.733 203.692 361.966 199.431 358.826 196.287C355.685 193.144 351.426 191.376 346.984 191.371ZM352.482 318.618C352.414 336.653 345.286 353.943 332.627 366.778C319.968 379.614 302.787 386.973 284.769 387.276C255.921 387.652 300.73 387.799 265.937 387.799C186.377 387.799 103.418 387.038 72.4647 386.545C68.3922 386.461 64.5139 384.786 61.6579 381.88C58.8018 378.973 57.1943 375.064 57.1786 370.988V208.151C57.1802 206.691 57.7594 205.291 58.7896 204.258C59.8197 203.224 61.2169 202.641 62.6756 202.636H346.973C348.431 202.638 349.829 203.217 350.862 204.248C351.894 205.279 352.477 206.677 352.482 208.136V318.618Z" fill="#164B98"/>
<path d="M311.986 89.3633H95.3739C93.4574 89.3661 91.5884 89.9608 90.0221 91.0661C88.4558 92.1715 87.2685 93.7337 86.6224 95.5395L53.1681 189.471C52.6688 190.873 52.5132 192.375 52.7142 193.85C52.9151 195.324 53.467 196.729 54.3232 197.946C55.1794 199.163 56.3151 200.157 57.6347 200.843C58.9543 201.53 60.4193 201.889 61.9066 201.891L352.419 202.407H352.432C353.97 202.407 355.483 202.026 356.837 201.296C358.19 200.567 359.342 199.512 360.188 198.228C361.035 196.943 361.549 195.469 361.686 193.936C361.823 192.403 361.577 190.861 360.972 189.447L320.526 94.9987C319.811 93.3253 318.62 91.8991 317.102 90.8972C315.584 89.8953 313.805 89.3619 311.986 89.3633Z" fill="#164B98"/>
<path d="M361.724 191.486C361.723 192.746 361.467 193.992 360.972 195.15L320.528 267.853C319.808 269.523 318.616 270.946 317.098 271.946C315.58 272.946 313.804 273.48 311.987 273.483H95.3772C93.46 273.481 91.59 272.887 90.0225 271.782C88.4549 270.677 87.2661 269.116 86.6182 267.31L53.1703 195.125C52.7603 193.975 52.5808 192.755 52.6421 191.536C52.7033 190.316 53.0041 189.121 53.5273 188.018C54.0504 186.915 54.7857 185.926 55.691 185.107C56.5963 184.289 57.654 183.657 58.8035 183.248C59.7979 182.888 60.847 182.704 61.9042 182.704L97.3915 182.637L111.876 182.612L302.467 182.277L316.959 182.252L352.422 182.185H352.43C354.895 182.186 357.258 183.166 359.001 184.91C360.744 186.654 361.723 189.02 361.724 191.486Z" fill="#164B98"/>
<path d="M83.9906 324.252C88.2859 324.252 147.271 327.86 147.271 332.159C147.271 336.457 88.2859 339.819 83.9906 339.819C81.9279 339.819 79.9496 338.999 78.4911 337.54C77.0325 336.08 76.2131 334.1 76.2131 332.036C76.2131 329.971 77.0325 327.992 78.4911 326.532C79.9496 325.072 81.9279 324.252 83.9906 324.252Z" fill="#164B98"/>
<path d="M298.497 32.2201H115.854C110.959 32.2258 106.267 34.1742 102.805 37.6381C99.3442 41.102 97.3973 45.7984 97.3916 50.697V273.483H311.987C313.749 273.488 315.475 272.986 316.96 272.036V50.697C316.954 45.7984 315.007 41.102 311.546 37.6381C308.085 34.1743 303.392 32.2258 298.497 32.2201Z" fill="#64748B"/>
<path d="M228.785 47.2007H128.692C124.235 47.205 119.961 48.9784 116.809 52.1317C113.656 55.285 111.882 59.5609 111.876 64.0215V273.483H302.467V120.941C302.445 101.391 294.674 82.6478 280.861 68.8237C267.048 54.9995 248.32 47.2232 228.785 47.2007Z" fill="white"/>
<path d="M269.997 254.88H144.346C143.26 254.88 142.218 255.312 141.45 256.081C140.682 256.849 140.25 257.892 140.25 258.979C140.25 260.066 140.682 261.108 141.45 261.877C142.218 262.646 143.26 263.077 144.346 263.077H269.997C271.083 263.077 272.125 262.646 272.893 261.877C273.661 261.108 274.092 260.066 274.092 258.979C274.092 257.892 273.661 256.849 272.893 256.081C272.125 255.312 271.083 254.88 269.997 254.88Z" fill="#E4E4E4"/>
<path d="M269.997 238.67H144.346C143.258 238.67 142.216 239.102 141.447 239.872C140.678 240.641 140.246 241.685 140.246 242.773C140.246 243.861 140.678 244.904 141.447 245.674C142.216 246.443 143.258 246.876 144.346 246.876H269.997C271.084 246.876 272.127 246.443 272.896 245.674C273.664 244.904 274.096 243.861 274.096 242.773C274.096 241.685 273.664 240.641 272.896 239.872C272.127 239.102 271.084 238.67 269.997 238.67Z" fill="#E4E4E4"/>
<path d="M198.813 222.468H144.346C143.259 222.468 142.218 222.9 141.45 223.669C140.682 224.437 140.25 225.48 140.25 226.567C140.25 227.654 140.682 228.696 141.45 229.465C142.218 230.234 143.259 230.665 144.346 230.665H198.813C199.9 230.665 200.941 230.234 201.709 229.465C202.477 228.696 202.909 227.654 202.909 226.567C202.909 225.48 202.477 224.437 201.709 223.669C200.941 222.9 199.9 222.468 198.813 222.468Z" fill="#E4E4E4"/>
<path d="M269.997 188.526H144.346C143.258 188.526 142.216 188.958 141.447 189.727C140.678 190.497 140.246 191.54 140.246 192.628C140.246 193.716 140.678 194.76 141.447 195.529C142.216 196.299 143.258 196.731 144.346 196.731H269.997C271.084 196.731 272.127 196.299 272.896 195.529C273.664 194.76 274.096 193.716 274.096 192.628C274.096 191.54 273.664 190.497 272.896 189.727C272.127 188.958 271.084 188.526 269.997 188.526Z" fill="#E4E4E4"/>
<path d="M269.997 172.324H144.346C143.26 172.324 142.218 172.755 141.45 173.524C140.682 174.293 140.25 175.335 140.25 176.422C140.25 177.509 140.682 178.552 141.45 179.32C142.218 180.089 143.26 180.521 144.346 180.521H269.997C271.083 180.521 272.125 180.089 272.893 179.32C273.661 178.552 274.092 177.509 274.092 176.422C274.092 175.335 273.661 174.293 272.893 173.524C272.125 172.755 271.083 172.324 269.997 172.324Z" fill="#E4E4E4"/>
<path d="M198.813 156.114H144.346C143.258 156.114 142.216 156.546 141.447 157.315C140.678 158.085 140.246 159.128 140.246 160.216C140.246 161.304 140.678 162.348 141.447 163.117C142.216 163.887 143.258 164.319 144.346 164.319H198.813C199.901 164.319 200.943 163.887 201.712 163.117C202.481 162.348 202.913 161.304 202.913 160.216C202.913 159.128 202.481 158.085 201.712 157.315C200.943 156.546 199.901 156.114 198.813 156.114Z" fill="#E4E4E4"/>
<path d="M269.997 122.171H144.346C143.258 122.171 142.216 122.603 141.447 123.372C140.678 124.142 140.246 125.185 140.246 126.274C140.246 127.362 140.678 128.405 141.447 129.175C142.216 129.944 143.258 130.376 144.346 130.376H269.997C271.084 130.376 272.127 129.944 272.896 129.175C273.664 128.405 274.096 127.362 274.096 126.274C274.096 125.185 273.664 124.142 272.896 123.372C272.127 122.603 271.084 122.171 269.997 122.171Z" fill="#0369A1"/>
<path d="M269.997 105.969H144.346C143.258 105.969 142.216 106.401 141.447 107.171C140.678 107.94 140.246 108.984 140.246 110.072C140.246 111.16 140.678 112.203 141.447 112.973C142.216 113.742 143.258 114.174 144.346 114.174H269.997C271.084 114.174 272.127 113.742 272.896 112.973C273.664 112.203 274.096 111.16 274.096 110.072C274.096 108.984 273.664 107.94 272.896 107.171C272.127 106.401 271.084 105.969 269.997 105.969Z" fill="#0369A1"/>
<path d="M198.813 89.7587H144.346C143.258 89.7587 142.216 90.191 141.447 90.9604C140.678 91.7298 140.246 92.7733 140.246 93.8615C140.246 94.9496 140.678 95.9931 141.447 96.7625C142.216 97.5319 143.258 97.9642 144.346 97.9642H198.813C199.901 97.9642 200.943 97.5319 201.712 96.7625C202.481 95.9931 202.913 94.9496 202.913 93.8615C202.913 92.7733 202.481 91.7298 201.712 90.9604C200.943 90.191 199.901 89.7587 198.813 89.7587Z" fill="#0369A1"/>
<path d="M310.112 63.8418C327.728 63.8418 342.008 49.5503 342.008 31.9209C342.008 14.2915 327.728 0 310.112 0C292.497 0 278.216 14.2915 278.216 31.9209C278.216 49.5503 292.497 63.8418 310.112 63.8418Z" fill="#0369A1"/>
<path d="M305.761 48.5342C305.21 48.5342 304.667 48.4058 304.174 48.1593C303.681 47.9127 303.253 47.5547 302.923 47.1136L294.221 35.5021C293.94 35.1292 293.735 34.7044 293.618 34.2521C293.502 33.7999 293.475 33.329 293.541 32.8665C293.606 32.404 293.762 31.959 293.999 31.5569C294.237 31.1548 294.551 30.8036 294.925 30.5233C295.298 30.2431 295.723 30.0393 296.175 29.9237C296.628 29.8081 297.098 29.783 297.56 29.8497C298.022 29.9164 298.466 30.0736 298.868 30.3125C299.269 30.5513 299.619 30.867 299.898 31.2414L305.591 38.8374L320.212 16.8881C320.734 16.1046 321.546 15.5606 322.468 15.3759C323.391 15.1912 324.349 15.3809 325.132 15.9033C325.915 16.4257 326.459 17.238 326.643 18.1614C326.828 19.0849 326.638 20.0438 326.116 20.8274L308.713 46.953C308.398 47.4255 307.975 47.8155 307.478 48.0904C306.982 48.3654 306.427 48.5172 305.859 48.5331C305.827 48.5336 305.794 48.5342 305.761 48.5342Z" fill="white"/>
</g>
<defs>
<clipPath id="clip0_31_409">
<rect width="564" height="494" fill="white"/>
</clipPath>
</defs>
</svg>
