<svg width="602" height="407" viewBox="0 0 602 407" fill="none" xmlns="http://www.w3.org/2000/svg">
<path d="M178.106 65.1598C196.28 65.1598 211.012 50.5733 211.012 32.5799C211.012 14.5865 196.28 -1.52588e-05 178.106 -1.52588e-05C159.932 -1.52588e-05 145.2 14.5865 145.2 32.5799C145.2 50.5733 159.932 65.1598 178.106 65.1598Z" fill="#FF6584"/>
<path d="M237.489 7.58304C221.541 5.44878 203.334 13.9832 199.201 29.3819C198.159 26.644 196.265 24.3049 193.793 22.7024C191.321 21.0999 188.398 20.3171 185.447 20.4671C182.496 20.617 179.669 21.6919 177.375 23.5365C175.082 25.3811 173.44 27.8999 172.687 30.729L174.512 32.0237C208.688 39.3409 244.065 39.1826 278.173 31.5597C267.08 20.0168 253.437 9.71728 237.489 7.58304Z" fill="#F0F0F0"/>
<path d="M169.096 51.0229C153.148 48.8887 134.941 57.4231 130.807 72.8218C129.766 70.0839 127.872 67.7447 125.4 66.1423C122.927 64.5398 120.004 63.757 117.053 63.9069C114.102 64.0569 111.276 65.1318 108.982 66.9764C106.688 68.821 105.046 71.3398 104.293 74.1689L106.119 75.4636C140.295 82.7808 175.672 82.6224 209.779 74.9995C198.686 63.4567 185.044 53.1572 169.096 51.0229Z" fill="#F0F0F0"/>
<path d="M290.84 138.15C285.442 129.311 279.045 119.873 269.028 116.987C257.428 113.645 245.511 120.284 235.403 126.837C205.174 146.432 176.063 167.668 148.204 190.447L148.234 190.79C169.924 189.309 191.614 187.828 213.304 186.347C228.975 185.277 245.184 184.06 259.033 176.72C264.288 173.935 269.41 170.214 275.365 169.955C282.764 169.633 289.215 174.749 294.284 180.094C324.273 211.71 332.951 260.06 366.594 287.837C345.38 236.037 320.049 185.984 290.84 138.15Z" fill="#F2F2F2"/>
<path d="M475.173 406.317C471.856 402.171 470.501 401.2 467.23 397.015C440.595 362.909 415.561 327.65 392.126 291.239C376.209 266.51 361.08 241.307 346.742 215.628C339.915 203.42 333.276 191.117 326.824 178.717C321.817 169.103 316.922 159.431 312.138 149.702C310.77 146.923 309.441 144.131 308.119 141.333C305.002 134.753 301.944 128.142 298.66 121.651C294.918 114.254 290.362 106.498 283.49 101.528C280.363 99.1736 276.624 97.7489 272.709 97.4206C267.115 97.0629 261.953 99.3499 257.101 101.848C221.601 120.175 188.366 143.154 158.305 169.301C128.167 195.507 101.229 225.113 78.0392 257.516C77.3297 258.519 75.6521 257.561 76.3682 256.551C79.1879 252.603 82.0634 248.698 84.9949 244.835C121.445 196.838 166.139 155.563 217.033 122.897C225.595 117.403 234.318 112.167 243.203 107.188C247.681 104.678 252.178 102.199 256.752 99.8737C261.237 97.5931 265.999 95.5425 271.122 95.4658C288.555 95.1975 297.582 114.745 303.783 127.899C305.731 132.038 307.703 136.165 309.699 140.279C317.242 155.898 325.075 171.375 333.198 186.709C338.212 196.176 343.335 205.588 348.568 214.945C364.853 244.081 382.162 272.628 400.495 300.585C424.781 337.618 448.874 370.332 476.541 404.962C477.302 405.921 475.941 407.288 475.173 406.317Z" fill="#E4E4E4"/>
<path d="M156.582 159.648C155.569 158.53 154.562 157.412 153.543 156.294C145.503 147.492 136.877 138.791 125.837 133.744C120.573 131.262 114.827 129.943 108.997 129.879C102.971 129.898 97.0798 131.463 91.5116 133.655C88.8791 134.696 86.3045 135.878 83.769 137.136C80.8718 138.58 78.0262 140.12 75.194 141.672C69.8772 144.585 64.6294 147.626 59.4506 150.794C49.1463 157.099 39.1647 163.886 29.5058 171.153C24.4988 174.923 19.595 178.815 14.7946 182.831C10.3297 186.562 5.95518 190.393 1.67093 194.324C0.75477 195.16 -0.613148 193.806 0.302988 192.969C1.43212 191.928 2.57416 190.893 3.7162 189.871C6.94231 186.983 10.2201 184.151 13.5495 181.375C19.6208 176.302 25.8494 171.426 32.2351 166.746C42.1652 159.463 52.437 152.675 63.0507 146.38C68.3546 143.237 73.7314 140.226 79.1812 137.347C80.8267 136.478 82.4915 135.629 84.1754 134.824C87.9964 132.915 91.9666 131.315 96.0474 130.039C101.828 128.187 107.944 127.593 113.978 128.295C119.804 129.134 125.417 131.057 130.522 133.961C141.361 139.96 149.768 149.236 157.95 158.288C158.776 159.208 157.414 160.568 156.582 159.648Z" fill="#E4E4E4"/>
<path d="M378.682 250.871L404.657 241.465L417.553 236.794C421.753 235.273 425.943 233.542 430.285 232.453C434.124 231.49 438.025 231.332 441.809 232.598C445.149 233.822 448.205 235.698 450.798 238.115C453.446 240.53 455.911 243.135 458.17 245.91C460.978 249.251 463.744 252.627 466.523 255.991C477.992 269.878 489.385 283.824 500.703 297.831C512.021 311.838 523.264 325.904 534.431 340.029C545.625 354.189 556.742 368.409 567.782 382.687C569.134 384.437 570.485 386.187 571.836 387.937C572.581 388.905 574.263 387.951 573.507 386.97C562.385 372.548 551.186 358.185 539.91 343.881C528.605 329.543 517.223 315.265 505.763 301.049C494.302 286.832 482.764 272.678 471.149 258.585C468.256 255.074 465.357 251.566 462.454 248.063C460.005 245.108 457.584 242.121 454.897 239.37C449.967 234.322 443.807 229.86 436.433 229.739C432.098 229.668 427.902 231.03 423.874 232.473C419.531 234.028 415.199 235.612 410.863 237.183L384.707 246.655L378.167 249.023C377.007 249.443 377.508 251.296 378.682 250.871Z" fill="#E4E4E4"/>
<path d="M122.419 144.821C109.219 138.104 92.3154 139.42 80.1859 147.811C103.322 151.763 126.205 157.051 148.718 163.648C139.369 158.223 132.056 149.725 122.419 144.821Z" fill="#F2F2F2"/>
<path d="M80.0559 147.788L77.5148 149.833C78.3743 149.117 79.2678 148.446 80.1858 147.811C80.1424 147.804 80.0992 147.795 80.0559 147.788Z" fill="#F2F2F2"/>
<path d="M449.82 250.965C447.263 247.883 444.499 244.657 440.674 243.405L437.104 243.544C464.284 291.097 500.993 332.647 544.977 365.646C513.258 327.419 481.539 289.192 449.82 250.965Z" fill="#F2F2F2"/>
<path d="M183.919 371.327C185.375 359.736 192.63 348.316 203.794 344.545C199.392 356.474 199.393 369.561 203.797 381.49C205.513 386.085 207.904 391.018 206.29 395.649C205.286 398.53 202.83 400.734 200.085 402.112C197.339 403.491 194.292 404.148 191.283 404.792L190.691 405.276C185.914 394.597 182.464 382.917 183.919 371.327Z" fill="#F0F0F0"/>
<path d="M203.905 344.764C197.404 351.977 193.363 361.034 192.356 370.65C192.103 372.716 192.179 374.809 192.584 376.852C193.043 378.829 194.028 380.648 195.438 382.121C196.724 383.52 198.203 384.804 199.124 386.488C199.582 387.357 199.849 388.312 199.908 389.291C199.968 390.27 199.817 391.25 199.467 392.167C198.654 394.474 197.053 396.355 195.422 398.14C193.612 400.122 191.699 402.153 190.93 404.781C190.836 405.099 190.343 404.937 190.436 404.619C191.775 400.047 196.258 397.45 198.396 393.332C199.393 391.411 199.812 389.18 198.877 387.151C198.059 385.377 196.535 384.052 195.22 382.647C193.824 381.23 192.799 379.497 192.236 377.598C191.727 375.582 191.569 373.496 191.768 371.427C192.141 366.764 193.251 362.188 195.06 357.867C197.096 352.923 199.971 348.361 203.561 344.378C203.783 344.132 204.126 344.519 203.905 344.764Z" fill="white"/>
<path d="M192.496 367.535C190.89 367.148 189.474 366.209 188.502 364.885C187.531 363.561 187.066 361.938 187.191 360.306C187.218 359.976 187.737 360.001 187.71 360.332C187.591 361.851 188.024 363.363 188.932 364.594C189.839 365.826 191.161 366.695 192.66 367.046C192.985 367.122 192.82 367.611 192.496 367.535Z" fill="white"/>
<path d="M194.691 381.496C197.593 379.781 199.735 377.046 200.69 373.836C200.785 373.518 201.278 373.68 201.184 373.998C200.183 377.336 197.949 380.178 194.925 381.956C194.637 382.125 194.404 381.665 194.691 381.496Z" fill="white"/>
<path d="M197.578 353.411C198.169 353.689 198.819 353.817 199.472 353.784C200.124 353.751 200.758 353.558 201.317 353.223C201.603 353.05 201.835 353.511 201.551 353.683C200.932 354.051 200.231 354.263 199.51 354.3C198.79 354.338 198.07 354.201 197.415 353.9C197.351 353.877 197.298 353.83 197.268 353.77C197.237 353.709 197.231 353.64 197.25 353.575C197.272 353.51 197.319 353.457 197.38 353.426C197.442 353.395 197.513 353.39 197.578 353.411Z" fill="white"/>
<path d="M237.825 365.246C237.649 365.359 237.474 365.472 237.298 365.59C234.947 367.12 232.725 368.838 230.655 370.725C230.493 370.868 230.33 371.016 230.172 371.164C225.233 375.762 221.2 381.229 218.276 387.286C217.115 389.697 216.141 392.192 215.363 394.75C214.288 398.282 213.406 402.196 211.277 405.085C211.059 405.389 210.821 405.679 210.567 405.954H191.334C191.29 405.932 191.246 405.915 191.202 405.893L190.434 405.928C190.465 405.793 190.5 405.654 190.531 405.52C190.549 405.442 190.571 405.363 190.588 405.285C190.601 405.233 190.614 405.181 190.623 405.133C190.627 405.116 190.632 405.098 190.636 405.085C190.645 405.038 190.658 404.994 190.667 404.951C190.86 404.173 191.059 403.395 191.264 402.618C191.264 402.613 191.264 402.613 191.268 402.609C192.771 396.668 194.981 390.925 197.85 385.5C197.938 385.34 198.026 385.175 198.122 385.014C199.451 382.612 200.976 380.322 202.681 378.167C203.619 376.99 204.617 375.86 205.67 374.783C208.396 372.004 211.547 369.667 215.007 367.857C221.905 364.252 229.891 362.87 237.263 365.073C237.452 365.129 237.636 365.185 237.825 365.246Z" fill="#F0F0F0"/>
<path d="M237.782 365.488C228.205 367.371 219.47 372.194 212.819 379.272C211.36 380.771 210.149 382.488 209.23 384.36C208.394 386.212 208.074 388.252 208.304 390.268C208.48 392.152 208.881 394.059 208.591 395.952C208.429 396.919 208.061 397.841 207.514 398.658C206.966 399.475 206.25 400.167 205.412 400.691C203.361 402.049 200.938 402.596 198.55 403.049C195.899 403.553 193.138 404.034 190.925 405.673C190.657 405.872 190.362 405.449 190.629 405.25C194.479 402.398 199.637 402.996 203.848 400.983C205.813 400.043 207.504 398.512 207.991 396.334C208.417 394.431 208.005 392.464 207.81 390.558C207.557 388.595 207.793 386.6 208.498 384.748C209.318 382.835 210.46 381.075 211.877 379.543C215.01 376.041 218.68 373.05 222.751 370.677C227.383 367.944 232.453 366.015 237.742 364.975C238.069 364.911 238.107 365.424 237.782 365.488Z" fill="white"/>
<path d="M214.825 376.868C213.778 375.602 213.218 374.009 213.248 372.372C213.277 370.736 213.893 369.163 214.985 367.934C215.207 367.686 215.607 368.016 215.384 368.264C214.365 369.406 213.791 370.872 213.767 372.396C213.743 373.92 214.27 375.402 215.253 376.575C215.466 376.83 215.038 377.122 214.825 376.868Z" fill="white"/>
<path d="M208.088 389.324C211.448 389.684 214.821 388.777 217.536 386.784C217.805 386.587 218.1 387.01 217.832 387.207C215.003 389.276 211.491 390.213 207.995 389.831C207.662 389.794 207.756 389.288 208.088 389.324Z" fill="white"/>
<path d="M227.472 368.621C227.774 369.194 228.216 369.684 228.757 370.047C229.298 370.41 229.921 370.634 230.571 370.699C230.905 370.732 230.81 371.238 230.478 371.206C229.76 371.131 229.072 370.882 228.473 370.483C227.875 370.083 227.384 369.545 227.044 368.914C227.007 368.857 226.993 368.788 227.006 368.722C227.018 368.655 227.055 368.596 227.11 368.556C227.167 368.517 227.237 368.502 227.304 368.515C227.372 368.527 227.432 368.565 227.472 368.621Z" fill="white"/>
<path d="M323.753 308.349C314.32 287.69 314.667 261.503 329.308 244.07C334.206 268.244 347.582 289.923 367.07 305.273C374.608 311.165 383.611 316.942 385.67 326.23C386.951 332.009 385.135 338.121 381.996 343.155C378.856 348.189 374.479 352.33 370.152 356.411L369.667 357.808C350.84 344.902 333.186 329.008 323.753 308.349Z" fill="#F0F0F0"/>
<path d="M329.715 244.322C326.316 262.784 328.878 281.837 337.039 298.775C338.73 302.452 340.996 305.843 343.754 308.821C346.535 311.637 350.027 313.664 353.866 314.691C357.427 315.721 361.19 316.365 364.436 318.234C366.083 319.214 367.502 320.529 368.6 322.091C369.698 323.653 370.451 325.427 370.808 327.297C371.82 331.933 371.089 336.653 370.212 341.245C369.238 346.342 368.146 351.622 369.556 356.746C369.727 357.367 368.744 357.594 368.574 356.974C366.119 348.058 370.891 339.265 370.224 330.301C369.913 326.118 368.327 322.003 364.704 319.579C361.537 317.46 357.657 316.792 354.043 315.781C350.282 314.833 346.813 312.988 343.939 310.406C341.037 307.576 338.643 304.278 336.859 300.653C332.71 292.554 329.874 283.861 328.453 274.89C326.774 264.661 326.875 254.223 328.751 244.027C328.867 243.396 329.831 243.695 329.715 244.322Z" fill="white"/>
<path d="M334.087 293.474C331.031 294.444 327.726 294.307 324.763 293.087C321.799 291.867 319.37 289.643 317.91 286.814C317.616 286.241 318.503 285.762 318.797 286.336C320.152 288.973 322.414 291.044 325.176 292.175C327.938 293.305 331.017 293.421 333.857 292.501C334.475 292.302 334.701 293.276 334.087 293.474Z" fill="white"/>
<path d="M351.991 314.405C355.045 308.656 355.798 301.979 354.101 295.705C353.932 295.084 354.915 294.857 355.084 295.478C356.838 302.01 356.04 308.957 352.849 314.932C352.544 315.502 351.688 314.971 351.991 314.405Z" fill="white"/>
<path d="M328.071 264.985C329.333 264.854 330.542 264.415 331.589 263.707C332.637 262.999 333.49 262.044 334.073 260.929C334.37 260.356 335.225 260.887 334.93 261.456C334.281 262.685 333.337 263.738 332.181 264.523C331.025 265.308 329.693 265.801 328.301 265.959C328.171 265.984 328.036 265.96 327.923 265.891C327.811 265.822 327.729 265.712 327.695 265.586C327.665 265.457 327.688 265.321 327.758 265.209C327.829 265.096 327.941 265.016 328.071 264.985Z" fill="white"/>
<path d="M406.84 244.272C406.665 244.635 406.49 244.998 406.319 245.369C403.988 250.26 402.063 255.331 400.562 260.531C400.439 260.931 400.321 261.339 400.21 261.741C396.728 274.308 395.633 287.405 396.98 300.368C397.521 305.525 398.458 310.635 399.781 315.651C401.61 322.58 404.15 329.948 403.576 336.866C403.525 337.589 403.428 338.307 403.287 339.018L371.426 358.286C371.331 358.293 371.24 358.309 371.145 358.317L369.909 359.143C369.822 358.889 369.738 358.624 369.652 358.37C369.601 358.223 369.557 358.072 369.506 357.924C369.475 357.825 369.443 357.725 369.409 357.637C369.398 357.604 369.388 357.571 369.382 357.545C369.348 357.457 369.325 357.372 369.295 357.291C368.82 355.809 368.355 354.322 367.9 352.828C367.895 352.821 367.895 352.821 367.898 352.81C364.456 341.422 361.944 329.649 361.317 317.873C361.298 317.519 361.274 317.158 361.27 316.794C361.017 311.485 361.203 306.164 361.826 300.884C362.176 297.994 362.674 295.124 363.317 292.284C364.994 284.949 367.826 277.921 371.709 271.457C379.451 258.573 391.269 248.284 405.733 244.547C406.103 244.452 406.466 244.36 406.84 244.272Z" fill="#F0F0F0"/>
<path d="M407.016 244.716C393.075 257.431 383.534 274.171 379.75 292.559C378.864 296.503 378.612 300.561 379.003 304.583C379.511 308.489 381.066 312.189 383.507 315.298C385.725 318.243 388.337 321 389.792 324.427C390.511 326.192 390.845 328.088 390.772 329.989C390.699 331.891 390.221 333.756 389.369 335.462C387.357 339.767 383.903 343.1 380.411 346.243C376.534 349.733 372.451 353.297 370.461 358.23C370.22 358.827 369.298 358.422 369.538 357.825C373 349.244 382.158 345.067 387.076 337.512C389.371 333.987 390.607 329.756 389.189 325.662C387.948 322.082 385.257 319.236 382.986 316.274C380.56 313.275 378.912 309.734 378.187 305.959C377.591 301.97 377.685 297.909 378.465 293.951C380.077 285.012 383.099 276.38 387.419 268.37C392.299 259.202 398.727 250.928 406.425 243.906C406.902 243.471 407.489 244.284 407.016 244.716Z" fill="white"/>
<path d="M380.617 286.567C377.587 285.52 375.032 283.44 373.407 280.699C371.783 277.959 371.196 274.736 371.75 271.606C371.865 270.973 372.863 271.12 372.749 271.753C372.227 274.667 372.775 277.669 374.292 280.218C375.81 282.767 378.198 284.695 381.025 285.653C381.639 285.862 381.227 286.775 380.617 286.567Z" fill="white"/>
<path d="M382.185 313.952C388.119 311.182 392.781 306.3 395.24 300.278C395.484 299.682 396.406 300.087 396.163 300.683C393.592 306.944 388.73 312.015 382.548 314.884C381.959 315.157 381.599 314.223 382.185 313.952Z" fill="white"/>
<path d="M393.138 260.235C394.225 260.882 395.457 261.251 396.724 261.311C397.991 261.37 399.253 261.116 400.397 260.573C400.982 260.293 401.342 261.227 400.761 261.505C399.494 262.099 398.1 262.378 396.7 262.315C395.3 262.253 393.937 261.853 392.729 261.148C392.61 261.091 392.517 260.992 392.469 260.869C392.421 260.747 392.422 260.611 392.472 260.489C392.527 260.369 392.627 260.274 392.752 260.226C392.877 260.179 393.015 260.182 393.138 260.235Z" fill="white"/>
<path d="M468.117 332.271L503.955 305.332L521.423 322.628L463.04 362.183L468.117 332.271Z" fill="#3F3D56"/>
<path d="M434.692 406.448H312.099L316.398 392.654C343.047 383.103 328.078 362.573 353.427 350.024C415.43 319.33 439.433 227.737 430.354 191.53L470.986 189.829C470.986 189.829 527.098 347.599 434.692 406.448Z" fill="#3F3D56"/>
<path d="M539.351 341.609C535.69 344.797 531.005 346.596 526.129 346.686C521.254 346.777 516.504 345.152 512.725 342.102L512.645 342.037L512.642 341.936C512.597 340.246 512.331 338.569 511.851 336.947C511.826 338.115 511.654 339.275 511.338 340.4L511.236 340.779L510.96 340.497C510.723 340.254 510.492 340.008 510.276 339.764C509.005 338.335 507.939 336.739 507.111 335.019C503.147 326.947 497.403 319.859 490.304 314.277C489.036 313.256 487.857 312.133 486.777 310.918C482.219 305.783 479.655 299.209 479.546 292.374C479.437 285.538 481.788 278.887 486.18 273.611C490.572 268.336 496.717 264.781 503.515 263.582C510.313 262.383 517.32 263.62 523.282 267.07L523.463 267.175L523.369 267.361C522.679 268.78 521.767 270.082 520.667 271.22C522.179 270.411 523.578 269.411 524.828 268.243L524.96 268.12L525.11 268.222C527.068 269.563 528.853 271.137 530.426 272.907L530.595 273.1C531.795 274.459 533.272 275.552 534.927 276.309C536.583 277.065 538.381 277.468 540.205 277.49C543.179 277.54 546.108 278.227 548.789 279.504C551.471 280.781 553.84 282.618 555.736 284.889C557.632 287.16 559.008 289.81 559.77 292.657C560.532 295.505 560.662 298.482 560.151 301.384L560.128 301.519L559.996 301.559C557.684 302.345 555.233 302.648 552.796 302.448C554.831 303.325 556.997 303.863 559.209 304.038L559.495 304.061L559.404 304.33C558.252 307.755 556.202 310.816 553.463 313.199L553.385 313.267C553.357 313.291 553.329 313.315 553.302 313.339C551.261 315.079 549.591 317.205 548.391 319.592C547.191 321.979 546.485 324.579 546.313 327.24C546.177 329.974 545.492 332.653 544.296 335.12C543.101 337.587 541.42 339.793 539.351 341.609Z" fill="#94A3B8"/>
<path opacity="0.15" d="M543.102 335.052C543.064 335.787 542.987 336.519 542.87 337.245C544.878 334.193 546.033 330.668 546.218 327.03C546.245 326.473 546.304 325.918 546.383 325.366C544.433 328.245 543.299 331.591 543.102 335.052Z" fill="black"/>
<path opacity="0.15" d="M549.585 310.26C551.221 310.962 552.944 311.444 554.709 311.694C555.389 310.984 556.016 310.226 556.587 309.426C554.334 310.172 551.952 310.456 549.585 310.26Z" fill="black"/>
<path opacity="0.15" d="M557.136 303.562C557.319 305.325 557.269 307.104 556.99 308.854C557.967 307.382 558.747 305.791 559.309 304.12L559.399 303.851L559.114 303.828C558.45 303.772 557.791 303.683 557.136 303.562Z" fill="black"/>
<path opacity="0.15" d="M555.23 284.202C553.334 282.072 551.009 280.356 548.406 279.164C545.803 277.972 542.977 277.331 540.109 277.28C538.286 277.258 536.488 276.855 534.832 276.099C533.176 275.342 531.7 274.249 530.5 272.889L530.33 272.697C528.758 270.927 526.973 269.353 525.014 268.012L524.865 267.91L524.733 268.033C523.482 269.2 522.084 270.201 520.572 271.01C521.671 269.872 522.583 268.57 523.274 267.151L523.368 266.965L523.186 266.86C519.234 264.57 514.791 263.237 510.22 262.971C505.649 262.704 501.079 263.512 496.883 265.327C492.687 267.142 488.984 269.914 486.076 273.416C483.168 276.918 481.137 281.052 480.15 285.479C482.051 282.171 484.597 279.27 487.64 276.943C490.683 274.617 494.161 272.911 497.874 271.926C501.588 270.94 505.461 270.694 509.271 271.201C513.081 271.709 516.752 272.96 520.07 274.882L520.252 274.987L520.157 275.173C519.467 276.592 518.555 277.894 517.455 279.032C518.967 278.223 520.366 277.222 521.616 276.055L521.748 275.932L521.898 276.034C523.856 277.375 525.642 278.949 527.214 280.719L527.383 280.911C528.584 282.271 530.06 283.364 531.716 284.121C533.371 284.877 535.169 285.28 536.993 285.302C541.761 285.382 546.353 287.096 549.986 290.154C553.62 293.211 556.07 297.421 556.919 302.067C557.926 301.888 558.922 301.648 559.9 301.349L560.033 301.309L560.056 301.174C560.591 298.168 560.435 295.081 559.6 292.143C558.764 289.205 557.271 286.49 555.23 284.202Z" fill="black"/>
<path d="M598.604 200.214C598.603 215.76 593.033 230.801 582.886 242.663C572.739 254.526 558.671 262.441 543.185 265.002L542.857 265.055L542.603 264.846C538.382 261.359 533.721 258.43 528.738 256.131C531.538 258.672 534.005 261.551 536.081 264.7L536.787 265.751L535.514 265.812C534.416 265.865 533.324 265.891 532.27 265.891C526.076 265.897 519.911 265.05 513.952 263.377C486.884 255.752 457.816 254.448 427.558 259.501C422.37 260.365 417.118 260.798 411.856 260.798C360.263 260.798 318.289 219.232 318.289 168.14C318.261 148.66 324.444 129.669 335.958 113.872C347.472 98.0763 363.728 86.2817 382.409 80.1697L383.053 79.9588L383.307 80.5804C385.303 85.2497 386.544 90.2013 386.984 95.2531C388.224 89.9143 388.755 84.4381 388.564 78.9632L388.544 78.3851L389.111 78.2442C396.551 76.4085 404.189 75.4809 411.856 75.482L412.686 75.4854C418.558 75.5027 424.367 74.2946 429.736 71.9399C435.104 69.5852 439.911 66.1368 443.843 61.8194C450.29 54.8035 458.196 49.2536 467.017 45.5517C475.838 41.8498 485.363 40.0838 494.939 40.375C504.515 40.6662 513.914 43.0078 522.488 47.2387C531.063 51.4696 538.61 57.4894 544.61 64.8839L544.89 65.2263L544.705 65.6276C540.83 74.0851 536.607 80.2465 531.567 84.7523C538.035 81.7484 543.955 77.7041 549.087 72.7838L549.749 72.1477L550.214 72.9375C556.128 82.9793 559.242 94.396 559.238 106.02L559.237 106.352C559.236 106.469 559.236 106.586 559.236 106.703C559.236 124.485 566.181 141.338 578.322 152.994C584.708 159.132 589.791 166.47 593.274 174.579C596.757 182.687 598.569 191.403 598.604 200.214Z" fill="#94A3B8"/>
<g opacity="0.15">
<path d="M517.507 45.0064C515.22 48.7644 512.406 52.1822 509.149 55.1577C513.812 52.9901 518.196 50.2771 522.208 47.0768C520.669 46.3264 519.102 45.6362 517.507 45.0064Z" fill="black"/>
<path d="M555.904 123.4C559.511 126.866 562.711 130.725 565.442 134.904C561.332 126.061 559.215 116.438 559.236 106.703C559.236 106.586 559.236 106.468 559.237 106.351L559.238 106.02C559.242 94.3959 556.128 82.9791 550.214 72.9374L549.749 72.1476L549.087 72.7837C545.43 76.2836 541.369 79.345 536.989 81.9049C538.118 97.8946 544.86 112.797 555.904 123.4Z" fill="black"/>
<path d="M536.819 76.4256L536.818 76.7569C536.818 76.8739 536.818 76.9917 536.818 77.1087C536.818 77.7534 536.829 78.3964 536.848 79.0385C539.972 74.8775 542.608 70.3783 544.705 65.6276L544.89 65.2262L544.61 64.8838C541.111 60.5722 537.079 56.7117 532.61 53.3927C535.393 60.7594 536.818 68.5606 536.819 76.4256Z" fill="black"/>
<path d="M578.322 152.994C575.131 149.921 572.295 146.505 569.867 142.81C574.215 151.981 576.359 162.023 576.131 172.151C575.902 182.279 573.309 192.217 568.552 201.187C563.796 210.156 557.007 217.913 548.716 223.85C540.426 229.787 530.859 233.743 520.766 235.407L520.439 235.46L520.185 235.251C515.963 231.765 511.302 228.836 506.319 226.536C509.119 229.078 511.587 231.957 513.663 235.106L514.369 236.157L513.096 236.217C511.997 236.27 510.906 236.297 509.852 236.297C503.658 236.302 497.493 235.456 491.534 233.782C464.466 226.157 435.398 224.853 405.14 229.907C399.951 230.77 394.699 231.204 389.438 231.204C366.505 231.221 344.371 222.864 327.273 207.732C334.858 223.594 346.831 236.999 361.803 246.393C376.775 255.786 394.131 260.781 411.856 260.798C417.117 260.798 422.369 260.365 427.558 259.501C457.816 254.448 486.884 255.752 513.952 263.377C519.911 265.05 526.076 265.897 532.27 265.891C533.324 265.891 534.416 265.865 535.514 265.812L536.787 265.751L536.081 264.7C534.005 261.551 531.538 258.672 528.738 256.131C533.721 258.43 538.382 261.359 542.603 264.845L542.857 265.055L543.185 265.002C555.304 263.005 566.625 257.714 575.884 249.719C585.143 241.723 591.976 231.337 595.62 219.72C599.265 208.103 599.577 195.712 596.522 183.93C593.468 172.148 587.167 161.437 578.322 152.994Z" fill="black"/>
</g>
<path d="M266.136 183.594C262.565 179.785 260.714 174.069 262.612 169.224C265.456 174.124 269.958 177.87 275.323 179.8C277.395 180.537 279.777 181.143 280.908 183.013C281.562 184.222 281.722 185.633 281.355 186.956C280.986 188.264 280.449 189.519 279.757 190.691L279.754 191.03C274.713 189.584 269.707 187.403 266.136 183.594Z" fill="#94A3B8"/>
<path d="M443.489 294.08C439.919 290.271 438.067 284.555 439.966 279.71C442.809 284.61 447.312 288.357 452.677 290.286C454.748 291.023 457.13 291.629 458.261 293.499C458.915 294.708 459.075 296.12 458.708 297.442C458.339 298.75 457.802 300.005 457.11 301.178L457.107 301.516C452.066 300.07 447.06 297.889 443.489 294.08Z" fill="#94A3B8"/>
<path d="M527.118 365.39C524.624 360.817 524.275 354.824 527.338 350.604C528.853 356.053 532.265 360.795 536.972 363.993C538.791 365.22 540.944 366.396 541.567 368.487C541.894 369.819 541.692 371.226 541.003 372.415C540.315 373.59 539.478 374.672 538.512 375.636L538.424 375.963C533.908 373.314 529.612 369.962 527.118 365.39Z" fill="#94A3B8"/>
<path d="M587.398 277.099C584.903 272.527 584.555 266.534 587.618 262.314C589.133 267.762 592.545 272.505 597.252 275.703C599.071 276.929 601.224 278.106 601.847 280.196C602.174 281.529 601.972 282.935 601.283 284.125C600.595 285.3 599.758 286.382 598.792 287.346L598.704 287.673C594.188 285.023 589.892 281.672 587.398 277.099Z" fill="#94A3B8"/>
<path d="M193.335 311.133C190.841 306.561 190.493 300.568 193.555 296.347C195.07 301.796 198.483 306.539 203.189 309.736C205.009 310.963 207.162 312.14 207.784 314.23C208.112 315.563 207.91 316.969 207.221 318.159C206.532 319.333 205.695 320.416 204.729 321.379L204.641 321.706C200.125 319.057 195.83 315.706 193.335 311.133Z" fill="#E6E6E6"/>
<path d="M418.572 354.922C420.738 337.675 431.534 320.683 448.146 315.07C441.595 332.821 441.596 352.295 448.15 370.045C450.703 376.882 454.261 384.223 451.86 391.113C450.366 395.4 446.711 398.68 442.626 400.731C438.54 402.782 434.006 403.76 429.529 404.718L428.648 405.439C421.54 389.548 416.406 372.168 418.572 354.922Z" fill="#E6E6E6"/>
<path d="M448.311 315.396C438.637 326.129 432.624 339.606 431.127 353.915C430.749 356.989 430.863 360.103 431.465 363.143C432.148 366.085 433.614 368.792 435.712 370.983C437.626 373.065 439.827 374.975 441.196 377.482C441.878 378.775 442.276 380.196 442.364 381.653C442.452 383.109 442.228 384.567 441.707 385.931C440.498 389.365 438.115 392.163 435.688 394.82C432.994 397.769 430.149 400.791 429.004 404.701C428.865 405.175 428.13 404.934 428.269 404.461C430.261 397.658 436.932 393.793 440.113 387.666C441.597 384.806 442.22 381.487 440.829 378.469C439.612 375.829 437.344 373.857 435.387 371.766C433.31 369.658 431.785 367.079 430.947 364.253C430.191 361.254 429.955 358.149 430.251 355.072C430.806 348.133 432.458 341.324 435.149 334.893C438.179 327.538 442.457 320.749 447.799 314.822C448.13 314.455 448.64 315.032 448.311 315.396Z" fill="white"/>
<path d="M431.335 349.279C428.944 348.705 426.838 347.307 425.392 345.337C423.946 343.367 423.254 340.952 423.44 338.523C423.48 338.032 424.253 338.069 424.213 338.561C424.036 340.822 424.68 343.072 426.03 344.904C427.381 346.736 429.348 348.03 431.577 348.552C432.062 348.666 431.816 349.393 431.335 349.279Z" fill="white"/>
<path d="M434.601 370.054C438.918 367.502 442.106 363.432 443.527 358.656C443.668 358.183 444.402 358.423 444.262 358.896C442.773 363.863 439.448 368.092 434.949 370.738C434.52 370.99 434.174 370.305 434.601 370.054Z" fill="white"/>
<path d="M438.897 328.263C439.775 328.676 440.743 328.867 441.714 328.818C442.685 328.769 443.629 328.483 444.46 327.984C444.886 327.726 445.231 328.412 444.808 328.668C443.887 329.215 442.844 329.53 441.772 329.587C440.699 329.643 439.629 329.438 438.654 328.991C438.559 328.956 438.48 328.887 438.435 328.797C438.389 328.707 438.379 328.603 438.408 328.507C438.441 328.411 438.51 328.331 438.602 328.285C438.693 328.24 438.799 328.232 438.897 328.263Z" fill="white"/>
<path d="M498.784 345.874C498.523 346.042 498.262 346.211 498 346.385C494.502 348.663 491.196 351.218 488.115 354.026C487.873 354.24 487.632 354.459 487.397 354.679C480.048 361.522 474.045 369.657 469.696 378.669C467.968 382.257 466.519 385.97 465.36 389.775C463.76 395.031 462.448 400.856 459.281 405.155C458.956 405.607 458.603 406.039 458.223 406.448H429.605C429.54 406.415 429.475 406.389 429.409 406.357L428.267 406.409C428.313 406.208 428.365 406.002 428.411 405.801C428.437 405.685 428.469 405.568 428.495 405.452C428.515 405.374 428.535 405.297 428.548 405.226C428.554 405.2 428.561 405.174 428.567 405.155C428.58 405.084 428.6 405.019 428.613 404.954C428.9 403.797 429.196 402.64 429.501 401.483C429.501 401.476 429.501 401.476 429.507 401.47C431.852 392.659 434.959 383.964 439.301 376.012C439.432 375.773 439.562 375.527 439.706 375.288C441.683 371.715 443.952 368.307 446.49 365.1C447.886 363.348 449.37 361.667 450.937 360.064C454.994 355.929 459.683 352.452 464.831 349.76C475.095 344.394 486.979 342.338 497.948 345.616C498.229 345.7 498.503 345.784 498.784 345.874Z" fill="#E6E6E6"/>
<path d="M498.719 346.234C484.469 349.036 471.472 356.213 461.575 366.745C459.404 368.975 457.602 371.529 456.234 374.315C454.99 377.071 454.515 380.107 454.857 383.106C455.119 385.91 455.715 388.747 455.284 391.564C455.042 393.003 454.496 394.375 453.68 395.591C452.865 396.806 451.8 397.837 450.554 398.615C447.501 400.636 443.896 401.45 440.343 402.125C436.399 402.874 432.289 403.59 428.997 406.03C428.598 406.325 428.158 405.695 428.557 405.4C434.284 401.156 441.96 402.046 448.227 399.05C451.15 397.652 453.667 395.373 454.391 392.133C455.024 389.3 454.412 386.374 454.122 383.538C453.745 380.617 454.096 377.648 455.145 374.892C456.365 372.047 458.065 369.428 460.173 367.147C464.835 361.937 470.295 357.486 476.354 353.955C483.246 349.888 490.79 347.018 498.66 345.47C499.147 345.374 499.203 346.139 498.719 346.234Z" fill="white"/>
<path d="M464.561 363.168C463.001 361.284 462.169 358.913 462.213 356.478C462.256 354.042 463.173 351.702 464.798 349.874C465.129 349.505 465.723 349.996 465.392 350.365C463.875 352.064 463.022 354.245 462.986 356.513C462.95 358.78 463.734 360.986 465.197 362.732C465.514 363.111 464.876 363.545 464.561 363.168Z" fill="white"/>
<path d="M454.535 381.702C459.534 382.238 464.554 380.888 468.593 377.922C468.993 377.628 469.433 378.258 469.034 378.552C464.825 381.631 459.598 383.025 454.397 382.456C453.901 382.401 454.042 381.648 454.535 381.702Z" fill="white"/>
<path d="M483.378 350.895C483.828 351.749 484.485 352.478 485.29 353.018C486.095 353.558 487.023 353.891 487.99 353.988C488.486 354.037 488.345 354.79 487.852 354.742C486.784 354.63 485.759 354.26 484.869 353.666C483.978 353.071 483.248 352.27 482.742 351.332C482.687 351.247 482.666 351.145 482.685 351.046C482.703 350.947 482.758 350.859 482.84 350.799C482.924 350.741 483.028 350.719 483.129 350.737C483.23 350.756 483.319 350.812 483.378 350.895Z" fill="white"/>
<path d="M273.31 357.286L249.558 339.432L237.981 350.894L276.675 377.111L273.31 357.286Z" fill="#3F3D56"/>
<path d="M295.463 406.448H376.713L373.864 397.306C356.202 390.975 366.123 377.369 349.322 369.052C308.229 348.709 292.32 288.004 298.338 264.008L271.409 262.88C271.409 262.88 234.219 367.445 295.463 406.448Z" fill="#3F3D56"/>
<path d="M221.484 353.952C221.371 352.188 220.903 350.465 220.107 348.883C219.312 347.3 218.205 345.891 216.853 344.738C216.835 344.722 216.816 344.706 216.798 344.691L216.746 344.646C214.931 343.066 213.572 341.038 212.808 338.768L212.748 338.589L212.938 338.574C214.403 338.458 215.839 338.102 217.188 337.52C215.573 337.653 213.948 337.452 212.416 336.931L212.328 336.905L212.313 336.815C211.974 334.892 212.061 332.919 212.566 331.031C213.071 329.144 213.983 327.388 215.239 325.883C216.496 324.378 218.066 323.16 219.843 322.314C221.62 321.467 223.561 321.012 225.533 320.979C226.742 320.964 227.933 320.697 229.031 320.196C230.128 319.695 231.106 318.97 231.902 318.069L232.014 317.942C233.056 316.768 234.239 315.725 235.537 314.837L235.636 314.769L235.724 314.851C236.553 315.624 237.48 316.287 238.482 316.823C237.753 316.069 237.149 315.206 236.691 314.266L236.629 314.143L236.749 314.073C240.7 311.786 245.344 310.967 249.849 311.761C254.355 312.556 258.428 314.912 261.339 318.408C264.249 321.905 265.808 326.313 265.735 330.843C265.663 335.374 263.964 339.731 260.943 343.134C260.227 343.939 259.446 344.684 258.606 345.36C253.9 349.06 250.093 353.757 247.466 359.107C246.917 360.247 246.211 361.305 245.368 362.252C245.225 362.413 245.073 362.577 244.915 362.738L244.732 362.924L244.664 362.673C244.455 361.928 244.341 361.159 244.325 360.385C244.006 361.46 243.83 362.571 243.8 363.691L243.799 363.759L243.746 363.801C241.787 365.385 239.422 366.398 236.915 366.728C234.408 367.057 231.858 366.691 229.549 365.67C227.24 364.648 225.263 363.011 223.839 360.942C222.415 358.873 221.6 356.453 221.484 353.952Z" fill="#E6E6E6"/>
<path opacity="0.15" d="M223.613 359.129C223.638 359.616 223.689 360.101 223.767 360.583C222.436 358.56 221.67 356.224 221.548 353.812C221.53 353.443 221.49 353.076 221.438 352.71C222.731 354.618 223.482 356.835 223.613 359.129Z" fill="black"/>
<path opacity="0.15" d="M219.316 342.698C218.232 343.163 217.09 343.482 215.92 343.648C215.469 343.178 215.053 342.675 214.675 342.145C216.168 342.64 217.747 342.828 219.316 342.698Z" fill="black"/>
<path opacity="0.15" d="M214.311 338.258C214.19 339.427 214.223 340.606 214.408 341.766C213.761 340.791 213.244 339.736 212.872 338.628L212.811 338.45L213.001 338.435C213.44 338.398 213.878 338.339 214.311 338.258Z" fill="black"/>
<path opacity="0.15" d="M215.575 325.428C216.832 324.016 218.372 322.878 220.097 322.088C221.823 321.299 223.696 320.873 225.596 320.84C226.805 320.825 227.997 320.558 229.094 320.057C230.191 319.555 231.17 318.831 231.965 317.93L232.077 317.802C233.119 316.629 234.303 315.586 235.601 314.697L235.7 314.63L235.787 314.711C236.616 315.485 237.543 316.148 238.545 316.684C237.816 315.93 237.212 315.067 236.754 314.127L236.692 314.003L236.812 313.933C239.431 312.416 242.376 311.533 245.406 311.356C248.435 311.18 251.464 311.715 254.245 312.918C257.026 314.121 259.48 315.958 261.408 318.279C263.335 320.6 264.681 323.339 265.335 326.273C264.075 324.081 262.387 322.158 260.371 320.616C258.354 319.075 256.049 317.944 253.588 317.291C251.127 316.638 248.56 316.475 246.034 316.811C243.509 317.147 241.077 317.976 238.878 319.25L238.757 319.32L238.82 319.443C239.277 320.384 239.881 321.247 240.61 322.001C239.608 321.465 238.681 320.802 237.853 320.028L237.765 319.946L237.666 320.014C236.368 320.903 235.185 321.946 234.143 323.119L234.03 323.246C233.235 324.147 232.257 324.872 231.159 325.373C230.062 325.875 228.87 326.142 227.662 326.156C224.502 326.209 221.458 327.346 219.05 329.372C216.642 331.398 215.018 334.189 214.456 337.268C213.788 337.149 213.128 336.99 212.479 336.791L212.392 336.765L212.376 336.676C212.022 334.683 212.125 332.638 212.679 330.69C213.232 328.743 214.222 326.944 215.575 325.428Z" fill="black"/>
<path d="M200.27 238.468C208.317 230.742 212.92 219.572 212.92 207.787C212.92 207.71 212.92 207.632 212.919 207.554L212.919 207.335C212.916 199.631 214.979 192.064 218.899 185.409L219.207 184.885L219.646 185.307C223.047 188.568 226.971 191.248 231.258 193.239C227.917 190.253 225.119 186.169 222.55 180.564L222.428 180.298L222.613 180.071C226.59 175.17 231.592 171.181 237.275 168.376C242.958 165.572 249.187 164.02 255.533 163.827C261.88 163.634 268.193 164.805 274.039 167.258C279.885 169.712 285.125 173.39 289.398 178.04C292.004 180.901 295.19 183.187 298.748 184.747C302.306 186.308 306.156 187.109 310.048 187.097L310.598 187.095C315.679 187.094 320.742 187.709 325.672 188.926L326.049 189.019L326.035 189.402C325.908 193.031 326.26 196.66 327.083 200.199C327.374 196.851 328.196 193.569 329.519 190.474L329.688 190.062L330.114 190.202C344.1 194.797 355.977 204.171 363.618 216.645C371.26 229.12 374.166 243.88 371.818 258.283C369.47 272.686 362.021 285.791 350.803 295.252C339.586 304.713 325.333 309.911 310.598 309.916C307.111 309.916 303.63 309.629 300.191 309.057C280.137 305.707 260.872 306.572 242.932 311.625C238.983 312.734 234.897 313.295 230.792 313.292C230.093 313.292 229.37 313.274 228.641 313.239L227.798 313.199L228.266 312.502C229.642 310.415 231.277 308.507 233.133 306.823C229.83 308.347 226.741 310.288 223.943 312.599L223.775 312.737L223.558 312.702C215.525 311.379 208.022 307.872 201.886 302.573C195.749 297.274 191.221 290.39 188.805 282.691C186.39 274.992 186.183 266.779 188.208 258.971C190.232 251.162 194.408 244.063 200.27 238.468Z" fill="#E6E6E6"/>
<g opacity="0.15">
<path d="M240.576 166.897C242.092 169.388 243.957 171.653 246.116 173.625C243.025 172.188 240.119 170.39 237.461 168.269C238.481 167.772 239.519 167.314 240.576 166.897Z" fill="black"/>
<path d="M215.128 218.853C212.737 221.151 210.616 223.709 208.807 226.478C211.53 220.617 212.934 214.239 212.92 207.788C212.92 207.71 212.92 207.632 212.919 207.554L212.919 207.335C212.915 199.631 214.979 192.064 218.899 185.409L219.207 184.885L219.646 185.307C222.07 187.626 224.761 189.656 227.664 191.352C226.916 201.95 222.447 211.827 215.128 218.853Z" fill="black"/>
<path d="M227.777 187.721L227.777 187.94C227.778 188.018 227.778 188.096 227.778 188.173C227.778 188.601 227.77 189.027 227.758 189.452C225.687 186.695 223.94 183.713 222.55 180.564L222.428 180.298L222.613 180.071C224.932 177.214 227.604 174.655 230.566 172.455C228.722 177.338 227.777 182.508 227.777 187.721Z" fill="black"/>
<path d="M200.27 238.468C202.385 236.431 204.264 234.167 205.873 231.718C202.992 237.796 201.571 244.452 201.722 251.164C201.874 257.877 203.593 264.463 206.745 270.408C209.897 276.352 214.397 281.494 219.892 285.428C225.386 289.363 231.727 291.985 238.416 293.088L238.633 293.123L238.801 292.985C241.599 290.674 244.688 288.733 247.991 287.209C246.135 288.893 244.5 290.801 243.124 292.888L242.656 293.585L243.499 293.625C244.228 293.66 244.951 293.678 245.65 293.678C249.755 293.681 253.841 293.12 257.79 292.011C275.73 286.958 294.995 286.093 315.049 289.443C318.488 290.015 321.969 290.302 325.456 290.302C340.655 290.314 355.324 284.775 366.656 274.746C361.63 285.259 353.694 294.143 343.771 300.369C333.848 306.594 322.345 309.905 310.598 309.916C307.111 309.917 303.63 309.629 300.191 309.057C280.137 305.708 260.872 306.572 242.932 311.625C238.983 312.735 234.897 313.295 230.792 313.292C230.093 313.292 229.37 313.274 228.641 313.239L227.798 313.199L228.266 312.503C229.642 310.415 231.277 308.507 233.133 306.823C229.83 308.347 226.741 310.288 223.943 312.599L223.775 312.737L223.558 312.702C215.525 311.379 208.022 307.872 201.886 302.573C195.749 297.274 191.221 290.39 188.805 282.691C186.39 274.992 186.183 266.78 188.207 258.971C190.232 251.162 194.408 244.063 200.27 238.468Z" fill="black"/>
</g>
<path d="M31.27 359.407C24.1649 359.407 17.2903 356.911 11.8684 352.365C6.44654 347.819 2.82879 341.516 1.65838 334.577L1.63418 334.431L1.7298 334.317C3.3232 332.425 4.66205 330.337 5.71283 328.105C4.55137 329.359 3.23553 330.464 1.79614 331.395L1.31572 331.711L1.28802 331.141C1.26382 330.649 1.25172 330.159 1.25172 329.687C1.2493 326.912 1.6361 324.15 2.40105 321.48C5.8861 309.352 6.48203 296.329 4.17245 282.772C3.77781 280.448 3.57952 278.094 3.57964 275.737C3.58319 265.776 7.16808 256.141 13.6924 248.558C20.2167 240.975 29.2544 235.938 39.1871 234.351C49.1198 232.764 59.2988 234.729 67.9015 239.895C76.5042 245.06 82.9688 253.089 86.1376 262.544L86.234 262.832L85.9499 262.946C83.8157 263.84 81.5525 264.396 79.2436 264.593C81.6837 265.149 84.1867 265.387 86.689 265.301L86.9532 265.292L87.0177 265.547C87.8567 268.88 88.2806 272.302 88.2801 275.737L88.2786 276.109C88.2707 278.74 88.8229 281.343 89.8991 283.748C90.9753 286.153 92.5515 288.307 94.5247 290.068C97.7315 292.957 100.268 296.499 101.96 300.451C103.652 304.403 104.459 308.671 104.326 312.962C104.193 317.252 103.123 321.463 101.189 325.305C99.2552 329.146 96.5038 332.528 93.1241 335.216L92.9676 335.341L92.7842 335.259C88.9186 333.522 86.1025 331.63 84.0431 329.372C85.416 332.27 87.2645 334.923 89.5134 337.222L89.8041 337.519L89.4431 337.727C84.8535 340.377 79.6353 341.772 74.3224 341.77L74.171 341.769C74.1175 341.769 74.0636 341.769 74.0102 341.769C70.0861 341.728 66.1934 342.463 62.5602 343.932C58.927 345.4 55.6265 347.572 52.8524 350.32C50.0473 353.181 46.6932 355.459 42.9871 357.019C39.2809 358.58 35.2973 359.392 31.27 359.407Z" fill="#E4E4E4"/>
<path d="M20.6468 406.236C20.5165 406.236 20.3905 406.189 20.2921 406.104C20.1938 406.02 20.1295 405.903 20.1111 405.775C20.0881 405.615 17.8336 389.516 19.8584 368.12C21.7283 348.361 27.7334 319.9 45.7224 296.525C45.7655 296.469 45.8194 296.422 45.8809 296.387C45.9424 296.351 46.0104 296.328 46.0809 296.319C46.1515 296.309 46.2232 296.314 46.292 296.332C46.3609 296.35 46.4255 296.381 46.4821 296.424C46.5387 296.466 46.5863 296.52 46.6221 296.581C46.6579 296.641 46.6812 296.709 46.6907 296.779C46.7001 296.849 46.6956 296.92 46.6774 296.988C46.6591 297.056 46.6275 297.12 46.5843 297.176C28.7507 320.348 22.794 348.6 20.9372 368.22C18.9242 389.492 21.161 405.465 21.1839 405.624C21.1947 405.7 21.189 405.777 21.1669 405.851C21.1449 405.925 21.1072 405.993 21.0563 406.051C21.0054 406.109 20.9424 406.155 20.8718 406.187C20.8012 406.219 20.7244 406.236 20.6468 406.236Z" fill="#3F3D56"/>
<path d="M29.6395 327.433C29.5251 327.433 29.4135 327.397 29.3209 327.331C29.2283 327.264 29.1593 327.17 29.1239 327.063C29.0885 326.955 29.0884 326.839 29.1238 326.731C29.1591 326.623 29.228 326.529 29.3205 326.463C34.4463 323.027 39.9836 320.237 45.805 318.154C54.8998 314.858 68.7298 311.869 82.9676 316.356C83.0356 316.377 83.0987 316.411 83.1532 316.456C83.2078 316.502 83.2528 316.557 83.2857 316.62C83.3185 316.683 83.3386 316.751 83.3446 316.821C83.3507 316.892 83.3427 316.963 83.3211 317.03C83.2995 317.097 83.2647 317.159 83.2187 317.213C83.1727 317.267 83.1164 317.312 83.053 317.344C82.9896 317.376 82.9204 317.396 82.8494 317.402C82.7784 317.407 82.7069 317.399 82.639 317.378C68.693 312.983 55.1137 315.923 46.1776 319.162C40.4498 321.208 35.0013 323.952 29.9575 327.33C29.8651 327.397 29.7538 327.433 29.6395 327.433Z" fill="#3F3D56"/>
<path d="M87.7102 305.174C88.3358 305.005 88.9165 304.702 89.4112 304.287C89.906 303.872 90.3028 303.355 90.5737 302.772C90.8447 302.188 90.9832 301.553 90.9794 300.911C90.9757 300.269 90.8298 299.636 90.5521 299.056L100.111 268.201L93.08 266.821L84.3375 297.065C83.3841 297.592 82.6588 298.446 82.2992 299.467C81.9396 300.487 81.9706 301.603 82.3863 302.603C82.802 303.602 83.5736 304.416 84.5548 304.89C85.5361 305.364 86.6588 305.465 87.7102 305.174Z" fill="#FFB6B6"/>
<path d="M100.668 259.186C99.6532 258.787 98.5364 258.72 97.4804 258.994V259.001C97.1245 259.085 96.78 259.212 96.4545 259.378C96.0976 259.551 95.7639 259.768 95.4609 260.023C94.8056 260.561 94.2994 261.256 93.9898 262.042L89.3313 270.078C89.1974 270.306 89.1154 270.56 89.0908 270.823C89.0663 271.085 89.1 271.35 89.1894 271.598C89.2768 271.848 89.4178 272.076 89.6026 272.267C89.7875 272.458 90.0119 272.607 90.2604 272.704L91.267 273.093L96.0481 274.952L97.8095 275.642L98.9967 276.102C99.2448 276.199 99.5111 276.242 99.7774 276.227C100.044 276.213 100.304 276.142 100.54 276.019C100.776 275.895 100.982 275.723 101.144 275.514C101.307 275.304 101.422 275.063 101.481 274.805L103.584 265.804C104.082 264.544 104.054 263.139 103.508 261.898C102.961 260.658 101.94 259.682 100.668 259.186Z" fill="#3F3D56"/>
<path d="M114.522 398.028H119.389L121.705 379.44H114.522V398.028Z" fill="#FFB6B6"/>
<path d="M111.953 406.377H115.443L116.066 403.114L117.662 406.377H126.919C127.363 406.377 127.795 406.237 128.153 405.976C128.51 405.716 128.774 405.349 128.906 404.93C129.038 404.51 129.032 404.06 128.887 403.645C128.742 403.229 128.467 402.871 128.102 402.621L120.709 397.566V394.268L112.933 394.727L111.953 406.377Z" fill="#2F2E41"/>
<path d="M67.1869 388.466L71.3731 390.924L82.9419 376.107L76.7633 372.479L67.1869 388.466Z" fill="#FFB6B6"/>
<path d="M60.6758 394.351L63.6779 396.114L65.8947 393.622L65.5863 397.234L73.5488 401.909C73.9304 402.133 74.3745 402.231 74.816 402.188C75.2576 402.144 75.6736 401.962 76.0033 401.668C76.333 401.374 76.5591 400.983 76.6486 400.553C76.7381 400.123 76.6864 399.675 76.5009 399.276L72.7466 391.195L74.446 388.357L67.5211 384.826L60.6758 394.351Z" fill="#2F2E41"/>
<path d="M116.694 279.182L119.059 294.111L96.5895 294.404L99.5466 280.061L116.694 279.182Z" fill="#FFB6B6"/>
<path d="M119.146 293.923L125.564 309.333L126.031 350.543L120.555 389.89H114.494L112.011 351.184L105.903 324.7L99.8791 352.4L81.1491 379.512H71.9454L88.8664 349.635L90.8247 317.09C90.8247 317.09 89.6041 303.283 95.8507 295.136L97.3712 290.787L119.146 293.923Z" fill="#2F2E41"/>
<path d="M119.457 265.434C119.444 265.3 119.425 265.159 119.399 265.025C118.913 261.804 117.158 258.904 114.519 256.961C111.879 255.018 108.569 254.189 105.314 254.657C102.256 255.11 99.4712 256.653 97.4806 258.994V259.001C97.3773 259.122 97.2806 259.25 97.1838 259.378C97.0096 259.595 96.8483 259.825 96.6934 260.055C95.2948 262.147 94.5745 264.612 94.6287 267.12V267.127C94.6489 268.093 94.7854 269.054 95.0352 269.989C95.4649 271.623 95.8031 273.28 96.0482 274.952C96.2159 276.013 96.345 277.054 96.4418 278.07C96.4998 278.581 96.545 279.085 96.5837 279.577V279.584C96.7773 282.018 96.8418 284.202 96.8999 285.895C96.9257 286.815 96.9515 287.582 96.9967 288.169C96.9978 288.208 97.0021 288.246 97.0096 288.284C97.0591 288.679 97.2303 289.05 97.4999 289.345C97.5331 289.386 97.5698 289.425 97.6096 289.46C97.8958 289.715 98.2418 289.895 98.6162 289.984C98.7457 290.009 98.8776 290.022 99.0097 290.022H99.0485L102.81 288.284L105.778 286.917L115.85 282.267C116.263 282.258 116.663 282.125 116.998 281.886C117.332 281.646 117.584 281.311 117.721 280.925V280.919C117.734 280.868 117.753 280.817 117.766 280.759C118.308 278.645 119.27 276.377 119.612 272.729C119.657 272.205 119.696 271.662 119.715 271.081V271.075C119.772 269.19 119.685 267.305 119.457 265.434Z" fill="#3F3D56"/>
<path d="M105.469 252.637C110.716 252.637 114.969 248.425 114.969 243.23C114.969 238.035 110.716 233.824 105.469 233.824C100.222 233.824 95.9682 238.035 95.9682 243.23C95.9682 248.425 100.222 252.637 105.469 252.637Z" fill="#FFB6B6"/>
<path d="M95.3255 257.851C93.3242 257.853 91.4055 258.642 89.9903 260.043C88.5752 261.444 87.779 263.344 87.7764 265.325V280.817C87.7758 282.558 88.39 284.245 89.5129 285.585C90.6358 286.926 92.1967 287.835 93.9254 288.157H93.9318C94.3914 288.242 94.858 288.284 95.3255 288.284H105.778V257.851H95.3255Z" fill="#94A3B8"/>
<path d="M95.461 259.378V270.678C95.461 271.024 95.5997 271.356 95.8465 271.6C96.0934 271.844 96.4282 271.982 96.7773 271.982C97.1263 271.982 97.4611 271.844 97.708 271.6C97.9548 271.356 98.0935 271.024 98.0935 270.678V259.378H95.461Z" fill="#3F3D56"/>
<path d="M101.262 278.07H93.6092C93.3909 278.07 93.1748 278.113 92.9733 278.195C92.7717 278.278 92.5887 278.4 92.4346 278.553C92.2806 278.706 92.1586 278.888 92.0756 279.088C91.9926 279.288 91.9503 279.502 91.951 279.718V284.247C91.9506 284.683 92.125 285.102 92.4358 285.411C92.7467 285.72 93.1687 285.894 93.6092 285.895H101.262C101.703 285.894 102.126 285.72 102.437 285.411C102.749 285.102 102.925 284.684 102.926 284.247V279.718C102.926 279.501 102.883 279.287 102.8 279.087C102.716 278.887 102.593 278.705 102.439 278.552C102.284 278.399 102.101 278.278 101.899 278.195C101.697 278.112 101.48 278.07 101.262 278.07Z" fill="#3F3D56"/>
<path d="M115.398 276.637C117.485 274.014 118.586 270.755 118.514 267.417C118.514 260.705 114.476 255.245 109.513 255.245C106.848 255.245 104.338 256.822 102.625 259.571L103.373 260.027C104.922 257.541 107.16 256.115 109.513 256.115C113.992 256.115 117.636 261.185 117.636 267.417C117.709 270.55 116.681 273.61 114.728 276.075L115.398 276.637Z" fill="#94A3B8"/>
<path d="M136.101 299.364C136.388 298.789 136.544 298.158 136.559 297.516C136.573 296.874 136.445 296.237 136.184 295.649C135.922 295.062 135.534 294.538 135.046 294.115C134.558 293.692 133.983 293.38 133.36 293.201L116.37 265.658L110.665 269.954L127.734 296.487C127.5 297.543 127.665 298.647 128.198 299.59C128.732 300.534 129.596 301.251 130.627 301.605C131.658 301.96 132.785 301.928 133.794 301.515C134.803 301.102 135.624 300.336 136.101 299.364Z" fill="#FFB6B6"/>
<path d="M122.27 269.017L119.399 265.025L117.863 262.891L116.863 261.499C116.549 260.885 116.112 260.342 115.579 259.901C114.669 259.147 113.524 258.727 112.338 258.711C111.151 258.695 109.995 259.084 109.065 259.813C108.134 260.542 107.486 261.567 107.229 262.714C106.973 263.861 107.123 265.061 107.656 266.111L110.637 274.895C110.723 275.145 110.862 275.373 111.045 275.565C111.228 275.757 111.451 275.908 111.698 276.008C111.946 276.107 112.211 276.153 112.478 276.141C112.745 276.13 113.006 276.062 113.243 275.942L114.205 275.457L115.721 274.69L117.082 274.007H117.089L119.612 272.729L120.47 272.301L121.605 271.726C121.842 271.605 122.05 271.434 122.215 271.227C122.38 271.019 122.498 270.778 122.561 270.522C122.624 270.265 122.631 269.998 122.58 269.738C122.53 269.479 122.424 269.233 122.27 269.017Z" fill="#3F3D56"/>
<path d="M571.234 407H1.84489C1.76683 407 1.68948 406.985 1.61729 406.956C1.5451 406.926 1.47947 406.883 1.42418 406.829C1.3689 406.774 1.32503 406.709 1.29509 406.638C1.26516 406.567 1.24976 406.49 1.24976 406.413C1.24976 406.335 1.26516 406.259 1.29509 406.187C1.32503 406.116 1.3689 406.051 1.42418 405.997C1.47947 405.942 1.5451 405.899 1.61729 405.87C1.68948 405.84 1.76683 405.825 1.84489 405.825H571.234C571.391 405.825 571.542 405.887 571.653 405.997C571.764 406.108 571.827 406.257 571.827 406.413C571.827 406.568 571.764 406.718 571.653 406.828C571.542 406.938 571.391 407 571.234 407Z" fill="#CCCCCC"/>
<path d="M303.023 357.767C300.529 353.195 300.18 347.202 303.243 342.981C304.758 348.43 308.17 353.173 312.877 356.37C314.697 357.597 316.849 358.774 317.472 360.864C317.799 362.197 317.598 363.603 316.908 364.793C316.22 365.967 315.383 367.05 314.417 368.013L314.329 368.34C309.813 365.691 305.517 362.34 303.023 357.767Z" fill="#E6E6E6"/>
<path d="M150.105 242.14C147.611 237.568 147.263 231.575 150.326 227.355C151.84 232.803 155.253 237.546 159.959 240.743C161.779 241.97 163.932 243.147 164.554 245.237C164.882 246.57 164.68 247.976 163.991 249.166C163.303 250.34 162.465 251.423 161.499 252.387L161.411 252.714C156.896 250.064 152.6 246.713 150.105 242.14Z" fill="#E6E6E6"/>
<path d="M99.6743 235.556V235.562C99.6752 235.972 99.6225 236.379 99.5174 236.775C99.5007 236.844 99.4807 236.917 99.4573 236.987V236.99C99.2335 237.697 98.8473 238.343 98.329 238.877C97.8108 239.411 97.1747 239.819 96.4704 240.069C96.367 240.109 96.2602 240.142 96.1534 240.172C95.9284 240.236 95.6985 240.283 95.4659 240.311C95.257 240.34 95.0462 240.354 94.8351 240.354C94.6702 240.354 94.5053 240.347 94.3412 240.33C93.9571 240.292 93.5794 240.206 93.2165 240.076C93.1597 240.06 93.104 240.04 93.0497 240.017C93.0224 240.007 92.9956 239.996 92.9695 239.983C92.3641 239.733 91.8165 239.362 91.3599 238.896C90.9034 238.429 90.5474 237.875 90.3136 237.268C90.0799 236.66 89.9732 236.013 90 235.363C90.0269 234.714 90.1867 234.077 90.4699 233.491L90.4732 233.487C90.7105 232.995 91.0323 232.548 91.4244 232.166C92.3296 231.271 93.5564 230.77 94.8351 230.771C94.8986 230.77 94.9621 230.772 95.0254 230.778C95.7618 230.808 96.4816 231.004 97.1304 231.35C97.7791 231.696 98.3398 232.184 98.7699 232.777C99.1422 233.288 99.4077 233.868 99.5508 234.482C99.6327 234.834 99.6741 235.194 99.6743 235.556Z" fill="#2F2E41"/>
<path d="M94.0897 232.65C93.6643 231.063 92.7449 229.648 91.462 228.607C90.179 227.565 88.5976 226.95 86.9419 226.849C85.2861 226.747 83.6401 227.164 82.237 228.041C80.834 228.917 79.7452 230.208 79.125 231.732C78.0855 234.285 78.4665 237.182 77.8439 239.864C77.2161 242.3 75.7988 244.465 73.8092 246.027C71.8197 247.589 69.3676 248.462 66.8289 248.513L76.2474 252.27C77.2531 252.779 78.3807 253.005 79.5072 252.924C81.1461 252.649 82.2864 251.099 82.7481 249.518C83.2098 247.937 83.1723 246.258 83.4645 244.638C83.8438 242.648 84.7076 240.779 85.9809 239.194C87.2543 237.608 88.8988 236.354 90.7721 235.54C91.8325 235.092 93.011 234.754 93.7608 233.886C94.5107 233.019 94.4689 231.382 93.3822 231" fill="#2F2E41"/>
<path d="M109.353 232.688C108.075 229.924 104.704 230.486 101.656 230.851C100.134 231.083 98.6921 231.68 97.4554 232.588C96.2187 233.497 95.2244 234.69 94.5586 236.065C93.2558 238.852 93.0068 242.009 93.8568 244.962C94.3127 246.973 95.4009 248.789 96.965 250.15C98.5747 251.431 106.142 254.462 106.772 251.852C105.984 255.258 107.568 254.725 109.914 257.335C111.128 253.722 111.698 246.915 112.912 243.303L113.461 241.672C113.846 240.525 114.232 239.377 114.51 238.201C114.86 236.724 114.995 235.029 114.068 233.821C113.141 232.612 110.806 232.565 110.337 234.01" fill="#2F2E41"/>
<path d="M107.823 244.191L107.417 241.631C107.693 238.448 107.242 233.384 109.353 232.688L110.643 233.965C109.827 234.235 108.274 238.995 107.823 244.191Z" fill="#FF6584"/>
</svg>
