<svg xmlns="http://www.w3.org/2000/svg" version="1.1" xmlns:xlink="http://www.w3.org/1999/xlink" width="367" height="417"><svg width="367" height="417" viewBox="0 0 367 417" fill="none" xmlns="http://www.w3.org/2000/svg">
<path d="M173.164 2.67949C179.352 -0.893164 186.976 -0.893164 193.164 2.67949L356.328 96.8826C362.516 100.455 366.328 107.058 366.328 114.203V302.609C366.328 309.754 362.516 316.357 356.328 319.929L193.164 414.133C186.976 417.705 179.352 417.705 173.164 414.133L10 319.929C3.81208 316.357 0.000120445 309.754 0 302.609V114.203C0 107.058 3.81198 100.455 10 96.8826L173.164 2.67949ZM335.664 142.295C335.664 134.626 327.388 129.811 320.722 133.601L193.873 205.72C190.71 207.518 188.774 210.893 188.816 214.531L190.608 366.568C190.699 374.27 199.097 378.981 205.718 375.046L217.405 368.098C220.437 366.296 222.295 363.03 222.295 359.503V314.052C222.295 310.404 224.282 307.045 227.479 305.288L290.519 270.637C297.183 266.974 305.336 271.796 305.336 279.401V298.661C305.336 306.44 313.828 311.241 320.493 307.228L335.664 298.096V142.295ZM45.667 133.776C39.0003 129.924 30.6641 134.735 30.6641 142.434V293.191C30.6642 296.787 32.5955 300.106 35.7217 301.884L162.639 374.041C169.305 377.831 177.581 373.017 177.581 365.348V348.721C177.581 345.084 175.607 341.733 172.425 339.971L67.3027 281.78C64.1208 280.019 62.1465 276.668 62.1465 273.031V199.864C62.1465 192.286 70.2462 187.462 76.9092 191.071L162.818 237.608C169.481 241.218 177.581 236.393 177.581 228.815V215.774C177.581 212.203 175.677 208.903 172.585 207.116L45.667 133.776ZM290.631 188.175C297.292 184.623 305.336 189.45 305.336 196.999V225.066L237.294 264.336C230.627 268.183 222.295 263.372 222.295 255.675V230.61C222.295 226.917 224.332 223.524 227.591 221.786L290.631 188.175ZM188.977 35.7723C185.878 33.9983 182.068 34.0116 178.981 35.8064L52.918 109.108C46.2678 112.975 46.2922 122.589 52.9619 126.423L179.938 199.402C183.002 201.163 186.768 201.176 189.845 199.435L198.672 194.442C205.345 190.667 205.461 181.094 198.882 177.157L118.92 129.307C112.541 125.49 112.41 116.294 118.677 112.296L183.66 70.8406C186.789 68.8448 190.765 68.7454 193.989 70.5828L299.869 130.923C302.97 132.69 306.778 132.671 309.86 130.872L317.313 126.522C323.958 122.644 323.918 113.03 317.241 109.208L188.977 35.7723Z" fill="white"></path>
</svg><style>@media (prefers-color-scheme: light) { :root { filter: contrast(1) brightness(0.1); } }
@media (prefers-color-scheme: dark) { :root { filter: none; } }
</style></svg>